<svg xmlns="http://www.w3.org/2000/svg" viewBox="0 0 800 300" width="100%" height="100%">
  <defs>
    <linearGradient id="bgGrad" x1="0" y1="0" x2="0" y2="1">
      <stop offset="0%" stop-color="#1e0a2d"/>
      <stop offset="50%" stop-color="#3b0764"/>
      <stop offset="100%" stop-color="#4c1d95"/>
    </linearGradient>
  </defs>

  <rect width="800" height="300" fill="url(#bgGrad)"/>

  <g shape-rendering="crispEdges">
    <rect x="180" y="0" width="3" height="15" fill="#c084fc" opacity="0.4">
      <animate attributeName="y" values="-20; 320" dur="4s" repeatCount="indefinite" />
    </rect>
    <rect x="520" y="0" width="3" height="15" fill="#a855f7" opacity="0.3">
      <animate attributeName="y" values="-20; 320" dur="3s" repeatCount="indefinite" begin="1s"/>
    </rect>
    <rect x="350" y="0" width="3" height="15" fill="#e9d5ff" opacity="0.5">
      <animate attributeName="y" values="-20; 320" dur="5s" repeatCount="indefinite" begin="2s"/>
    </rect>
  </g>

  <g fill="#7e22ce" opacity="0.6" shape-rendering="crispEdges">
    <rect x="380" y="40" width="20" height="5"/>
    <rect x="375" y="45" width="30" height="5"/>
    <rect x="370" y="50" width="40" height="20"/>
    <rect x="375" y="70" width="30" height="5"/>
    <rect x="380" y="75" width="20" height="5"/>
  </g>
  <g fill="#9333ea" opacity="0.8" shape-rendering="crispEdges">
    <rect x="385" y="50" width="25" height="15"/>
    <rect x="380" y="65" width="25" height="5"/>
  </g>

  <g fill="#e9d5ff" shape-rendering="crispEdges">
    <rect x="100" y="50" width="5" height="5">
      <animate attributeName="opacity" values="0.2; 1; 0.2" dur="3s" repeatCount="indefinite"/>
    </rect>
    <rect x="250" y="90" width="5" height="5">
      <animate attributeName="opacity" values="0.2; 1; 0.2" dur="4s" repeatCount="indefinite" begin="1s"/>
    </rect>
    <rect x="420" y="100" width="5" height="5">
      <animate attributeName="opacity" values="0.2; 1; 0.2" dur="2.5s" repeatCount="indefinite" begin="0.5s"/>
    </rect>
    <rect x="620" y="60" width="5" height="5">
      <animate attributeName="opacity" values="0.2; 1; 0.2" dur="3.5s" repeatCount="indefinite" begin="2s"/>
    </rect>
    <rect x="750" y="80" width="5" height="5">
      <animate attributeName="opacity" values="0.2; 1; 0.2" dur="2s" repeatCount="indefinite" begin="1.5s"/>
    </rect>
  </g>

  <g shape-rendering="crispEdges">
    <path d="M 0 300 v -40 h 20 v -10 h 30 v -10 h 40 v -10 h 60 v -10 h 80 v 10 h 50 v 10 h 60 v -10 h 70 v -20 h 50 v -10 h 80 v 10 h 60 v 10 h 50 v 20 h 60 v 10 h 90 v 40 Z" fill="#4c1d95"/>
    <path d="M 0 300 v -20 h 40 v -10 h 50 v -10 h 100 v 10 h 70 v -10 h 80 v -10 h 120 v 10 h 90 v 20 h 110 v -10 h 80 v -10 h 60 v 40 Z" fill="#581c87"/>
    <rect x="0" y="280" width="800" height="20" fill="#6b21a8"/>
    <g fill="#d8b4fe">
      <rect x="50" y="285" width="5" height="5"/>
      <rect x="180" y="290" width="5" height="5"/>
      <rect x="350" y="285" width="5" height="5"/>
      <rect x="480" y="290" width="5" height="5"/>
      <rect x="580" y="285" width="5" height="5"/>
      <rect x="720" y="290" width="5" height="5"/>
    </g>
  </g>

  <g shape-rendering="crispEdges">
    <animateTransform attributeName="transform" type="translate" values="0,0; 0,-5; 0,0" dur="3s" repeatCount="indefinite"/>
    <rect x="465" y="95" width="10" height="5" fill="#60a5fa"/>
    <rect x="460" y="100" width="20" height="15" fill="#3b82f6"/>
    <rect x="465" y="115" width="10" height="5" fill="#2563eb"/>
    <rect x="465" y="100" width="5" height="5" fill="#bfdbfe"/>
  </g>

  <g font-family="Consolas, 'Courier New', monospace">
    <text x="44" y="124" fill="#2e1065" font-size="64" font-weight="900" letter-spacing="2">Juliane</text>
    <text x="40" y="120" fill="#e9d5ff" font-size="64" font-weight="900" letter-spacing="2">Juliane</text>

    <text x="42" y="157" fill="#2e1065" font-size="14" font-weight="bold">&gt; Segurança da Informação | Cibersegurança</text>
    <text x="40" y="155" fill="#c084fc" font-size="14" font-weight="bold">&gt; Segurança da Informação | Cibersegurança</text>

    <text x="42" y="177" fill="#2e1065" font-size="14" font-weight="bold">&gt; Governança, Riscos e Compliance</text>
    <text x="40" y="175" fill="#c084fc" font-size="14" font-weight="bold">&gt; Governança, Riscos e Compliance</text>
  </g>

  <g shape-rendering="crispEdges">
    <animate attributeName="fill" values="#ec4899; #f472b6; #ec4899" dur="1.5s" repeatCount="indefinite"/>
    <rect x="50" y="210" width="10" height="5"/>
    <rect x="65" y="210" width="10" height="5"/>
    <rect x="45" y="215" width="35" height="5"/>
    <rect x="45" y="220" width="35" height="5"/>
    <rect x="50" y="225" width="25" height="5"/>
    <rect x="55" y="230" width="15" height="5"/>
    <rect x="60" y="235" width="5" height="5"/>
  </g>

  <g shape-rendering="crispEdges">
    <rect x="630" y="140" width="120" height="90" fill="#2a1b3d"/>
    <path d="M 630 140 h 120 v 5 h -115 v 85 h -5 z" fill="#4a3b5d"/>
    <rect x="640" y="150" width="100" height="70" fill="#0f0518"/>
    <rect x="670" y="230" width="40" height="15" fill="#2a1b3d"/>
    <rect x="650" y="245" width="80" height="10" fill="#2a1b3d"/>
    <g fill="#22c55e">
      <rect x="625" y="240" width="30" height="5"/>
      <rect x="620" y="235" width="10" height="5"/>
      <rect x="620" y="210" width="5" height="25"/>
      <rect x="625" y="205" width="10" height="5"/>
      <rect x="630" y="190" width="5" height="15"/>
      <rect x="615" y="220" width="5" height="5" fill="#16a34a"/>
      <rect x="635" y="195" width="5" height="5" fill="#16a34a"/>
      
      <rect x="720" y="245" width="20" height="5"/>
      <rect x="740" y="220" width="5" height="25"/>
      <rect x="730" y="215" width="10" height="5"/>
      <rect x="730" y="180" width="5" height="35"/>
      <rect x="745" y="230" width="5" height="5" fill="#16a34a"/>
      <rect x="725" y="190" width="5" height="5" fill="#16a34a"/>
    </g>
  </g>

  <g font-family="Consolas, 'Courier New', monospace" font-size="12" font-weight="bold" fill="#4ade80">
    <text x="645" y="165">&gt; SYS_CHK</text>
    <text x="645" y="181">&gt; SECURE</text>
    <text x="645" y="197">&gt; ROOT_</text>
  </g>
  <rect x="692" y="187" width="8" height="12" fill="#4ade80" shape-rendering="crispEdges">
    <animate attributeName="opacity" values="0;1;0" dur="1s" repeatCount="indefinite"/>
  </rect>

  <g fill="#000" shape-rendering="crispEdges">
    <rect x="520" y="230" width="15" height="5"/>
    <rect x="515" y="235" width="25" height="5"/>
    <rect x="510" y="240" width="35" height="15"/>
    <rect x="515" y="255" width="25" height="5"/>
    <rect x="510" y="260" width="5" height="5"/>
    <rect x="520" y="260" width="5" height="5"/>
    <rect x="530" y="260" width="5" height="5"/>
    <rect x="540" y="260" width="5" height="5"/>
    <rect x="515" y="240" width="5" height="10" fill="#fff"/>
    <rect x="530" y="240" width="5" height="10" fill="#fff"/>
    <rect x="515" y="245" width="5" height="5" fill="#000"/>
    <rect x="530" y="245" width="5" height="5" fill="#000"/>
  </g>
  <g fill="#c084fc" shape-rendering="crispEdges">
    <animateTransform attributeName="transform" type="translate" values="0,0; 0,-3; 0,0" dur="2s" repeatCount="indefinite"/>
    <rect x="545" y="235" width="15" height="5"/>
    <rect x="545" y="240" width="15" height="10"/>
    <rect x="550" y="250" width="5" height="5"/>
    <rect x="550" y="237" width="5" height="10" fill="#fff"/>
    <rect x="547" y="240" width="10" height="5" fill="#fff"/>
  </g>

  <g fill="#000" shape-rendering="crispEdges">
    <rect x="580" y="240" width="15" height="5"/>
    <rect x="575" y="245" width="25" height="5"/>
    <rect x="570" y="250" width="35" height="15"/>
    <rect x="575" y="265" width="25" height="5"/>
    <rect x="570" y="270" width="5" height="5"/>
    <rect x="580" y="270" width="5" height="5"/>
    <rect x="590" y="270" width="5" height="5"/>
    <rect x="600" y="270" width="5" height="5"/>
    <rect x="575" y="250" width="5" height="10" fill="#fff"/>
    <rect x="590" y="250" width="5" height="10" fill="#fff"/>
    <rect x="575" y="255" width="5" height="5" fill="#000"/>
    <rect x="590" y="255" width="5" height="5" fill="#000"/>
  </g>
  <rect x="560" y="255" width="8" height="8" fill="#4ade80" shape-rendering="crispEdges">
    <animate attributeName="opacity" values="0.5; 1; 0.5" dur="1s" repeatCount="indefinite"/>
  </rect>

  <g fill="#000" shape-rendering="crispEdges">
    <rect x="690" y="115" width="15" height="5"/>
    <rect x="685" y="120" width="25" height="5"/>
    <rect x="680" y="125" width="35" height="15"/>
    <rect x="685" y="140" width="25" height="5"/>
    <rect x="685" y="145" width="5" height="5"/>
    <rect x="705" y="145" width="5" height="5"/>
    <rect x="685" y="125" width="5" height="10" fill="#fff"/>
    <rect x="700" y="125" width="5" height="10" fill="#fff"/>
    <rect x="685" y="125" width="5" height="5" fill="#000"/>
    <rect x="700" y="125" width="5" height="5" fill="#000"/>
  </g>
  <g shape-rendering="crispEdges">
    <animateTransform attributeName="transform" type="translate" values="0,0; 0,-2; 0,0" dur="2.5s" repeatCount="indefinite"/>
    <rect x="665" y="125" width="12" height="10" fill="#fbbf24"/>
    <rect x="667" y="120" width="8" height="5" fill="none" stroke="#fbbf24" stroke-width="2"/>
    <rect x="670" y="128" width="2" height="4" fill="#000"/>
  </g>

</svg>
